<?xml version="1.0" encoding="UTF-8"?>
<svg id="Layer_2" data-name="Layer 2" xmlns="http://www.w3.org/2000/svg" viewBox="0 0 181.05 49.59">
  <g id="Design">
    <g>
      <g>
        <g>
          <path d="M6.54,49.59h-1.3v-4.57c0-.18-.07-.34-.2-.47-.13-.13-.29-.2-.47-.2s-.34,.07-.47,.2-.2,.29-.2,.47v4.57h-1.27v-4.57c0-.18-.07-.34-.2-.47-.13-.13-.29-.2-.47-.2s-.34,.07-.47,.2c-.13,.13-.2,.29-.2,.47v4.57H0v-4.57c0-.53,.2-.99,.59-1.38,.39-.39,.85-.59,1.38-.59,.5,0,.93,.17,1.3,.5,.38-.34,.81-.5,1.31-.5,.53,0,.99,.2,1.38,.59,.39,.39,.59,.85,.59,1.38v4.57Z"/>
          <path d="M15.31,47.62c0,.54-.19,1-.58,1.39-.38,.39-.85,.58-1.39,.58h-1.27c-.54,0-1-.19-1.39-.58-.39-.39-.58-.85-.58-1.39v-2.61c0-.54,.19-1,.58-1.39,.39-.39,.85-.58,1.39-.58h1.27c.54,0,1.01,.19,1.39,.58,.38,.39,.58,.85,.58,1.39v2.61Zm-1.3,0v-2.61c0-.18-.07-.34-.2-.47-.13-.13-.29-.2-.47-.2h-1.27c-.18,0-.34,.07-.47,.2-.13,.13-.2,.29-.2,.47v2.61c0,.18,.07,.34,.2,.47,.13,.13,.29,.2,.47,.2h1.27c.18,0,.34-.07,.47-.2,.13-.13,.2-.29,.2-.47Z"/>
          <path d="M24.08,47.62c0,.54-.19,1-.58,1.39-.38,.39-.85,.58-1.39,.58h-1.27c-.54,0-1-.19-1.39-.58-.39-.39-.58-.85-.58-1.39v-4.57h1.3v4.57c0,.18,.07,.34,.2,.47,.13,.13,.29,.2,.47,.2h1.27c.18,0,.34-.07,.47-.2,.13-.13,.2-.29,.2-.47v-4.57h1.3v4.57Z"/>
          <path d="M32.86,49.59h-1.3v-4.57c0-.18-.07-.34-.2-.47-.13-.13-.29-.2-.47-.2h-1.94v5.24h-1.3v-6.54h3.23c.54,0,1.01,.19,1.39,.58,.38,.39,.58,.85,.58,1.39v4.57Z"/>
          <path d="M66.68,49.59h-1.3v-4.57c0-.18-.07-.34-.2-.47-.13-.13-.29-.2-.47-.2h-1.94v5.24h-1.3v-6.54h3.23c.54,0,1.01,.19,1.39,.58,.38,.39,.58,.85,.58,1.39v4.57Z"/>
          <path d="M41.63,44.34h-1.97v5.24h-1.27v-5.24h-1.97v-1.3h5.2v1.3Z"/>
          <path d="M50.4,49.59h-1.3v-1.3h-2.61v1.3h-1.3v-4.57c0-.54,.19-1,.58-1.39,.39-.39,.85-.58,1.39-.58h1.27c.54,0,1.01,.19,1.39,.58,.38,.39,.58,.85,.58,1.39v4.57Zm-1.3-2.64v-1.94c0-.18-.07-.34-.2-.47-.13-.13-.29-.2-.47-.2h-1.27c-.18,0-.34,.07-.47,.2-.13,.13-.2,.29-.2,.47v1.94h2.61Z"/>
          <path d="M57.9,49.59h-3.93v-1.3h1.34v-3.95h-1.34v-1.3h3.93v1.3h-1.33v3.95h1.33v1.3Z"/>
        </g>
        <g>
          <path d="M80.99,44.34h-1.97v5.24h-1.27v-5.24h-1.97v-1.3h5.2v1.3Z"/>
          <path d="M89.77,49.59h-1.3c0-.47-.01-.75-.04-.85-.08-.3-.29-.45-.63-.45h-1.94v1.3h-1.3v-6.54h3.23c.54,0,1.01,.19,1.39,.58,.38,.39,.58,.85,.58,1.39v1.31c0,.5-.16,.93-.49,1.3,.33,.33,.49,.77,.49,1.3v.67Zm-1.3-3.27v-1.31c0-.18-.07-.34-.2-.47-.13-.13-.29-.2-.47-.2h-1.94v2.6h1.94c.17,0,.33-.06,.47-.19s.2-.27,.2-.44Z"/>
          <path d="M98.54,49.59h-1.3v-1.3h-2.61v1.3h-1.3v-4.57c0-.54,.19-1,.58-1.39,.39-.39,.85-.58,1.39-.58h1.27c.54,0,1.01,.19,1.39,.58,.38,.39,.58,.85,.58,1.39v4.57Zm-1.3-2.64v-1.94c0-.18-.07-.34-.2-.47-.13-.13-.29-.2-.47-.2h-1.27c-.18,0-.34,.07-.47,.2-.13,.13-.2,.29-.2,.47v1.94h2.61Z"/>
          <path d="M106.04,49.59h-3.93v-1.3h1.34v-3.95h-1.34v-1.3h3.93v1.3h-1.33v3.95h1.33v1.3Z"/>
          <path d="M113.55,49.59h-1.97c-.53,0-.99-.2-1.38-.59-.39-.39-.59-.85-.59-1.38v-4.57h1.34v4.57c0,.18,.06,.34,.19,.47,.13,.13,.27,.2,.44,.2h1.97v1.3Z"/>
          <path d="M122.32,47.62c0,.54-.19,1-.57,1.39-.38,.39-.85,.58-1.4,.58h-3.23v-1.3h3.23c.19,0,.35-.07,.48-.2,.13-.13,.19-.29,.19-.47s-.06-.34-.19-.47c-.13-.13-.29-.2-.48-.2h-1.27c-.55,0-1.02-.18-1.4-.55-.38-.37-.57-.83-.57-1.38s.19-1,.58-1.39c.38-.39,.85-.58,1.39-.58h3.23v1.3h-3.23c-.18,0-.34,.07-.47,.2-.13,.13-.2,.29-.2,.47s.07,.34,.2,.47c.13,.13,.29,.2,.47,.2h1.27c.56,0,1.03,.19,1.4,.55,.38,.37,.56,.83,.56,1.38Z"/>
        </g>
        <g>
          <path d="M162.95,49.59h-1.3v-4.57c0-.18-.07-.34-.2-.47-.13-.13-.29-.2-.47-.2h-1.94v5.24h-1.3v-6.54h3.23c.54,0,1.01,.19,1.39,.58,.38,.39,.58,.85,.58,1.39v4.57Z"/>
          <path d="M136.64,49.59h-1.3v-1.3h-2.61v1.3h-1.3v-4.57c0-.54,.19-1,.58-1.39,.39-.39,.85-.58,1.39-.58h1.27c.54,0,1.01,.19,1.39,.58,.38,.39,.58,.85,.58,1.39v4.57Zm-1.3-2.64v-1.94c0-.18-.07-.34-.2-.47-.13-.13-.29-.2-.47-.2h-1.27c-.18,0-.34,.07-.47,.2-.13,.13-.2,.29-.2,.47v1.94h2.61Z"/>
          <path d="M145.41,49.59h-3.23c-.54,0-1.01-.19-1.39-.58-.38-.39-.58-.85-.58-1.39v-2.61c0-.54,.19-1,.58-1.39,.38-.39,.85-.58,1.39-.58h3.23v1.3h-3.23c-.18,0-.34,.07-.47,.2-.13,.13-.2,.29-.2,.47v2.61c0,.18,.07,.34,.2,.47,.13,.13,.29,.2,.47,.2h1.94v-1.34h-1.31v-1.27h2.61v3.9Z"/>
          <path d="M154.18,49.59h-3.23c-.54,0-1.01-.19-1.39-.58-.38-.39-.58-.85-.58-1.39v-2.61c0-.54,.19-1,.58-1.39,.38-.39,.85-.58,1.39-.58h3.23v1.3h-3.23c-.18,0-.34,.07-.47,.2-.13,.13-.2,.29-.2,.47v.67h3.28v1.27h-3.28v.67c0,.18,.07,.34,.2,.47,.13,.13,.29,.2,.47,.2h3.23v1.3Z"/>
          <path d="M171.72,47.62c0,.54-.19,1-.58,1.39-.38,.39-.85,.58-1.39,.58h-1.27c-.54,0-1-.19-1.39-.58-.39-.39-.58-.85-.58-1.39v-2.61c0-.54,.19-1,.58-1.39,.39-.39,.85-.58,1.39-.58h1.27c.54,0,1.01,.19,1.39,.58,.38,.39,.58,.85,.58,1.39h-1.3c0-.18-.07-.34-.2-.47-.13-.13-.29-.2-.47-.2h-1.27c-.18,0-.34,.07-.47,.2-.13,.13-.2,.29-.2,.47v2.61c0,.18,.07,.34,.2,.47,.13,.13,.29,.2,.47,.2h1.27c.18,0,.34-.07,.47-.2,.13-.13,.2-.29,.2-.47h1.3Z"/>
          <path d="M180.5,45.01c0,.55-.19,1.01-.56,1.38-.38,.37-.84,.55-1.4,.55v2.64h-1.27v-2.64c-.55,0-1.02-.18-1.4-.55-.38-.37-.57-.83-.57-1.38v-1.97h1.3v1.97c0,.18,.07,.34,.2,.47,.13,.13,.29,.2,.47,.2h1.27c.19,0,.35-.07,.48-.2,.13-.13,.19-.29,.19-.47v-1.97h1.3v1.97Z"/>
        </g>
      </g>
      <g>
        <path d="M59.01,23.28c-3.85,0-6.99,3.14-6.99,6.99s3.14,6.99,6.99,6.99,6.99-3.14,6.99-6.99-3.14-6.99-6.99-6.99Z"/>
        <path d="M105.69,23.28c-3.85,0-6.99,3.14-6.99,6.99s3.14,6.99,6.99,6.99,6.99-3.14,6.99-6.99-3.14-6.99-6.99-6.99Z"/>
        <path d="M27.08,1.54l-3.73,8.79c-.43,1.02-1.88,1.01-2.29-.02L17.51,1.58c-.39-.95-1.31-1.58-2.34-1.58H1.19C.53,0,0,.53,0,1.19V35.1c0,.66,.53,1.19,1.19,1.19H12.37c.63,0,1.15-.51,1.15-1.15v-13.26c0-.55,.78-.66,.94-.14l3.32,10.93c.22,.72,.88,1.2,1.62,1.2h5.59c.75,0,1.41-.49,1.62-1.2l3.32-10.93c.16-.53,.94-.41,.94,.14v13.26c0,.63,.51,1.15,1.15,1.15h11.17c.66,0,1.19-.53,1.19-1.19V1.19c0-.66-.53-1.19-1.19-1.19h-13.76c-1.02,0-1.93,.61-2.33,1.54Z"/>
        <path d="M101.01,0H63.7c-.66,0-1.19,.53-1.19,1.19V10.6c0,.66,.53,1.19,1.19,1.19h10.32c.66,0,1.19,.53,1.19,1.19v22.11c0,.66,.53,1.19,1.19,1.19h11.82c.66,0,1.19-.53,1.19-1.19V12.99c0-.66,.53-1.19,1.19-1.19h10.4c.66,0,1.19-.53,1.19-1.19V1.19c0-.66-.53-1.19-1.19-1.19Z"/>
        <path d="M147.07,0h-14.39c-1.13,0-2.14,.73-2.49,1.81l-10.6,32.93c-.25,.77,.33,1.56,1.14,1.56h10.77c.54,0,1.01-.36,1.15-.87l.72-2.59c.07-.25,.29-.42,.55-.42h11.91c.25,0,.48,.17,.55,.42l.72,2.59c.14,.52,.61,.87,1.15,.87h10.77c.81,0,1.39-.79,1.14-1.56L149.55,1.81c-.35-1.08-1.35-1.81-2.49-1.81Zm-10.45,21.16l2.19-7.89c.3-1.08,1.84-1.08,2.14,0l2.19,7.89c.1,.36-.17,.72-.55,.72h-5.43c-.37,0-.65-.36-.55-.72Z"/>
        <path d="M174.06,23.28c-3.85,0-6.99,3.14-6.99,6.99s3.14,6.99,6.99,6.99,6.99-3.14,6.99-6.99-3.14-6.99-6.99-6.99Z"/>
      </g>
    </g>
  </g>
</svg>